pedal_clip_forces_x_-0.11_y_-0.05.mot
version=1
nRows=230
nColumns=4
inDegrees=yes
endheader
time	PedalClip_calcn_r_Fx	PedalClip_calcn_r_Fy	PedalClip_calcn_r_Fz
0.23651928	-319.214245975052	517.548583117732	0
0.23665412	-319.918944586122	518.891548220694	0
0.23678919	-320.624713481184	520.237103901689	0
0.2369239	-321.331546031631	521.585238195216	0
0.23705897	-322.039437971887	522.935943316103	0
0.23719355	-322.748383620331	524.289208977527	0
0.23732861	-323.458379871687	525.645029494445	0
0.23746307	-324.169422208018	527.003396694822	0
0.23759811	-324.881508392265	528.36430654045	0
0.23773246	-325.594634655665	529.727752264106	0
0.23786748	-326.308799273364	531.093730837701	0
0.23800171	-327.023998936213	532.462236377081	0
0.23813671	-327.740232231144	533.833266474433	0
0.23827083	-328.457496141578	535.206815806365	0
0.2384058	-329.175789452612	536.582882345648	0
0.23853981	-329.895109343958	537.961461130401	0
0.23867475	-330.615454731158	539.342550362369	0
0.23880866	-331.336822933745	540.726145316809	0
0.23894357	-332.059212955187	542.112244326335	0
0.23907738	-332.782622221024	543.500842825184	0
0.23921225	-333.507049794946	544.891939212753	0
0.23934595	-334.232493187838	546.285529033234	0
0.23948078	-334.958951505312	547.68161071131	0
0.23961439	-335.686422330884	549.080179871023	0
0.23974918	-336.414904800218	550.481234936629	0
0.2398827	-337.144396561901	551.884771594878	0
0.24001745	-337.874896774673	553.290788255728	0
0.24015087	-338.606403148502	554.699280661342	0
0.24028557	-339.338914862471	556.110247203401	0
0.2404189	-340.072429687777	557.523683680813	0
0.24055355	-340.806946825368	558.939588472486	0
0.2406868	-341.542464111425	560.357957444235	0
0.2408214	-342.278980775084	561.778788977867	0
0.24095456	-343.016494726028	563.202079026335	0
0.2410891	-343.7550052337	564.62782600182	0
0.24122218	-344.494510295752	566.056025976672	0
0.24135667	-345.235009241154	567.48667743492	0
0.24148968	-345.976500177379	568.919776615024	0
0.24162411	-346.718982520632	570.35532213072	0
0.24175703	-347.462454518816	571.793310450177	0
0.24189141	-348.206915712811	573.23374039329	0
0.24202426	-348.952364531452	574.67660874037	0
0.24215857	-349.698800688225	576.12191461388	0
0.24229136	-350.446222843796	577.569655208493	0
0.2424256	-351.19463094272	579.019830065641	0
0.24255832	-351.944023938469	580.4724369158	0
0.24269251	-352.694402074653	581.927475853996	0
0.24282516	-353.445764667223	583.384945284663	0
0.24295928	-354.198112334316	584.844846005534	0
0.24309187	-354.951444830284	586.307177245357	0
0.24322592	-355.705763227699	587.771940662494	0
0.24335846	-356.461067798099	589.239136466207	0
0.24349245	-357.217360149014	590.708767334977	0
0.24362493	-357.974641146807	592.180834612942	0
0.24375885	-358.732913010854	593.655342151607	0
0.24389129	-359.492177274541	595.132292574172	0
0.24402514	-360.252436838075	596.611691043127	0
0.24415753	-361.013693964431	598.093541586553	0
0.24429132	-361.775952291786	599.577850793164	0
0.24442368	-362.53921486195	601.064624196055	0
0.2445574	-363.303486093032	602.553869896111	0
0.24468972	-364.06876983868	604.045595000067	0
0.24482338	-364.835071321355	605.539809172837	0
0.24495567	-365.6023952214	607.036521128085	0
0.24508927	-366.370747571196	608.53574210982	0
0.24522154	-367.140133873721	610.037482434876	0
0.24535509	-367.910560957811	611.541754904071	0
0.24548734	-368.682035126402	613.048571397028	0
0.24562083	-369.454563973135	614.557946213202	0
0.24575308	-370.228154560857	616.069892720204	0
0.24588652	-371.002815199834	617.584426625146	0
0.24601877	-371.778553657393	619.101562678159	0
0.24615217	-372.555378898005	620.621317874488	0
0.24628444	-373.333299325116	622.143708215295	0
0.24641779	-374.112324483352	623.668751840942	0
0.24655008	-374.892463333687	625.196465851341	0
0.2466834	-375.673725918017	626.726869370827	0
0.24681573	-376.456121668788	628.259980430352	0
0.24694903	-377.239661036146	629.795818964293	0
0.2470814	-378.024353833136	631.334403756735	0
0.24721468	-378.810210825594	632.87575537048	0
0.24734712	-379.597242113942	634.419893159542	0
0.24748039	-380.385458685976	635.966838130581	0
0.2476129	-381.174870836183	637.516610023556	0
0.24774618	-381.965489681553	639.069230105775	0
0.24787877	-382.7573256193	640.624718322541	0
0.24801206	-383.550389805798	642.183096023967	0
0.24814475	-384.344692653525	643.744383187331	0
0.24827807	-385.140245273245	645.30860107683	0
0.24841086	-385.937058010963	646.87576953933	0
0.24854422	-386.735141853466	648.445909597194	0
0.24867713	-387.534507006103	650.019040819142	0
0.24881053	-388.335164261763	651.595183846266	0
0.24894356	-389.137123620351	653.174357839799	0
0.24907702	-389.940395621235	654.756582940337	0
0.24921018	-390.744990005358	656.341877794427	0
0.24934371	-391.550917011076	657.930261946849	0
0.24947701	-392.358186079978	659.521753448118	0
0.24961061	-393.166807115884	661.116371179354	0
0.24974405	-393.976789235556	662.714132542956	0
0.24987775	-394.78814199047	664.315055719208	0
0.25001133	-395.600874163732	665.919157442514	0
0.25014512	-396.414994953941	667.526455188428	0
0.25027885	-397.230512819696	669.13696503796	0
0.25041276	-398.047436624493	670.750703793202	0
0.25054662	-398.86577453013	672.367686932265	0
0.25068066	-399.685535101155	673.987930650943	0
0.25081467	-400.506726248388	675.611449910728	0
0.25094884	-401.329356290992	677.238260403193	0
0.25108301	-402.153432951251	678.868376693257	0
0.25121731	-402.978964372012	680.501814102212	0
0.25135164	-403.805958163781	682.138586948098	0
0.25148609	-404.634422375053	683.778710342885	0
0.25162059	-405.464364592962	685.422198532076	0
0.2517552	-406.295792864234	687.069066601869	0
0.25188986	-407.128714850549	688.719328919979	0
0.25202464	-407.963138697183	690.373000747195	0
0.25215948	-408.799072243357	692.030096779668	0
0.25229443	-409.636523835248	693.690632658393	0
0.25242945	-410.475501591259	695.354623612336	0
0.25256459	-411.316014156139	697.02208585938	0
0.25269981	-412.158070020911	698.693035349271	0
0.25283513	-413.001678215311	700.367489050248	0
0.25297055	-413.846847682168	702.04546379085	0
0.25310607	-414.693587906632	703.726977428911	0
0.2532417	-415.541908346803	705.412047795652	0
0.25337744	-416.39181900193	707.100693752923	0
0.25351329	-417.243329900052	708.792934246349	0
0.25364925	-418.096451599083	710.488789246995	0
0.25378532	-418.951194717317	712.188278891229	0
0.25392151	-419.807570354613	713.891424273491	0
0.25405782	-420.66558966401	715.598246639108	0
0.25419426	-421.525264218832	717.308768025401	0
0.25433082	-422.386605673753	719.023010541015	0
0.25446751	-423.249626143689	720.740996933767	0
0.25460433	-424.114338011198	722.462750042858	0
0.25474129	-424.980754378675	724.188293422789	0
0.25487838	-425.848889067163	725.917651104838	0
0.25501562	-426.718757166487	727.650848413155	0
0.255153	-427.590375206242	729.387912116517	0
0.25529053	-428.463761751203	731.128871484689	0
0.25542821	-429.338937647245	732.873758809134	0
0.25556604	-430.215926497759	734.622610618409	0
0.25570404	-431.094754715908	736.375468406535	0
0.25584219	-431.975451326998	738.132379654697	0
0.25598051	-432.858046803936	739.893398209913	0
0.256119	-433.7425708836	741.658583773901	0
0.25625767	-434.629050608852	743.427999583917	0
0.25639651	-435.517509756529	745.201707421478	0
0.25653554	-436.40796896346	746.979763508405	0
0.25667475	-437.300446333862	748.762217263363	0
0.25681415	-438.194958051129	750.549111593448	0
0.25695375	-439.091519032187	752.340484108996	0
0.25709355	-439.990143412927	754.136368420664	0
0.25723355	-440.890844983485	755.936795467749	0
0.25737376	-441.793637470284	757.741794552038	0
0.25751418	-442.698534778172	759.551394223275	0
0.25765483	-443.605551130175	761.365622888246	0
0.2577957	-444.514701549158	763.184512116958	0
0.25793679	-445.426003326877	765.008106168132	0
0.25807812	-446.339475291868	766.836453901077	0
0.25821969	-447.25513701704	768.669604022718	0
0.25836151	-448.173008392717	770.507603343194	0
0.25850357	-449.093109267022	772.350495422065	0
0.25864589	-450.015459155053	774.198319575817	0
0.25878846	-450.940076983797	776.05111016436	0
0.2589313	-451.866980878467	777.908896143986	0
0.25907442	-452.796187971104	779.771700828274	0
0.25921781	-453.72771423645	781.639541838952	0
0.25936149	-454.661574343252	783.51243119714	0
0.25950546	-455.597781524111	785.390375531349	0
0.25964973	-456.536347456025	787.273376359917	0
0.2597943	-457.477304630785	789.161475669322	0
0.25993919	-458.420766283622	791.05489737448	0
0.26008441	-459.366847949898	792.953960759282	0
0.26022995	-460.315523557224	794.858814711529	0
0.26037583	-461.266519574951	796.769154235625	0
0.26052207	-462.219381103286	798.68426963544	0
0.26066866	-463.173632221227	800.603272693862	0
0.26081563	-464.128927716372	802.525356148456	0
0.26096297	-465.085119009322	804.449970410552	0
0.26111071	-466.042226330455	806.376871908689	0
0.26125886	-467.000358505354	808.306052317973	0
0.26140746	-467.959656651829	810.237619721758	0
0.26155649	-468.920263320258	812.17174780704	0
0.26170603	-469.882303342574	814.108634446099	0
0.261856	-470.845875739292	816.048469749434	0
0.26200657	-471.811052860129	817.991417175762	0
0.26215755	-472.777868266988	819.937592526765	0
0.26230925	-473.746281099323	821.887018517367	0
0.26246131	-474.716229760582	823.839659056915	0
0.26261429	-475.687690376614	825.795488873179	0
0.26276745	-476.660677589713	827.754518255923	0
0.26292196	-477.635227785778	829.71678277807	0
0.26307619	-478.611382461459	831.682322837958	0
0.26323264	-479.58917594166	833.651165081937	0
0.26338776	-480.568628192121	835.623310493222	0
0.26354696	-481.549741847311	837.598729386486	0
0.26370236	-482.532501999374	839.577360474291	0
0.26386621	-483.516877262816	841.55911198765	0
0.26402074	-484.502821057037	843.543863549994	0
0.26419379	-485.490272520588	845.531467826961	0
0.2643458	-486.479156810449	847.521751451904	0
0.26454157	-487.469388678962	849.514515103685	0
0.26468855	-488.460882340633	851.509532839173	0
0.26498907	-489.453535285592	853.506550918995	0
0.26501912	-490.447220149227	855.505286461269	0
0.26506037	-491.441781306197	857.505426346812	0
0.26526662	-492.437031999703	859.506625005254	0
0.26543222	-493.432752078754	861.508500124132	0
0.26545242	-494.428692332169	863.51064233905	0
0.26552519	-495.424581065092	865.512623807706	0
0.26569537	-496.420133976287	867.514008096141	0
0.26574589	-497.415067933485	869.514363533996	0
0.26590245	-498.409117832434	871.513279835226	0
0.26605604	-499.402054817587	873.510387185127	0
0.26624549	-500.393703367958	875.505376310289	0
0.26639906	-501.383954417412	877.498017404333	0
0.26671352	-502.372772029016	879.48817537149	0
0.26684063	-503.36019220306	881.475818858644	0
0.26704398	-504.346313925178	883.461021108536	0
0.26710203	-505.331284094438	885.443951759563	0
0.26728567	-506.315280601722	887.424862883982	0
0.26743863	-507.298497145254	889.404072675138	0
0.26775466	-508.281117738787	891.381923961666	0
0.26781175	-509.263302106476	893.35875245168	0
0.26800793	-510.245181773351	895.334870496522	0
0.26816138	-511.226857673719	897.310552199841	0
0.26818183	-512.208400466509	899.286024695012	0
0.26825861	-513.189853311794	901.261467401383	0
